<svg width="84" height="84" viewBox="0 0 84 84" fill="none" xmlns="http://www.w3.org/2000/svg">
<path d="M22.6128 61.3856C21.8979 61.3856 21.3203 60.808 21.3203 60.0931C21.3203 55.1054 25.3801 51.0469 30.3677 51.0469C31.0826 51.0469 31.6602 51.6245 31.6602 52.3394C31.6602 53.0543 31.0826 53.6319 30.3677 53.6319C26.8042 53.6319 23.9053 56.5295 23.9053 60.0931C23.9053 60.8074 23.3277 61.3856 22.6128 61.3856Z" fill="#1A6FEE"/>
<path d="M35.5376 53.634L30.3677 53.6328C29.6528 53.6328 29.0752 53.0535 29.0752 52.3403C29.0752 51.6254 29.6545 51.0479 30.3677 51.0479L35.5376 51.049C36.2525 51.049 36.8301 51.6283 36.8301 52.3415C36.8301 53.0564 36.2508 53.634 35.5376 53.634Z" fill="#1A6FEE"/>
<path d="M22.6128 67.8515C21.8979 67.8515 21.3203 67.274 21.3203 66.5591V60.0942C21.3203 59.3793 21.8979 58.8018 22.6128 58.8018C23.3277 58.8018 23.9053 59.3793 23.9053 60.0942V66.5591C23.9053 67.274 23.3277 67.8515 22.6128 67.8515Z" fill="#1A6FEE"/>
<path d="M61.387 61.3856C60.6721 61.3856 60.0945 60.808 60.0945 60.0931C60.0945 56.5295 57.1957 53.6319 53.6321 53.6319C52.9172 53.6319 52.3396 53.0543 52.3396 52.3394C52.3396 51.6245 52.9172 51.0469 53.6321 51.0469C58.6198 51.0469 62.6795 55.1056 62.6795 60.0931C62.6795 60.8074 62.1019 61.3856 61.387 61.3856Z" fill="#1A6FEE"/>
<path d="M48.4627 53.634C47.7495 53.634 47.1702 53.0564 47.1702 52.3415C47.1702 51.6283 47.7478 51.049 48.4627 51.049L53.6326 51.0479C54.3458 51.0479 54.9251 51.6254 54.9251 52.3403C54.9251 53.0535 54.3475 53.6328 53.6326 53.6328L48.4627 53.634Z" fill="#1A6FEE"/>
<path d="M61.3867 67.8504C60.6718 67.8504 60.0942 67.2728 60.0942 66.5579V60.4653C60.0942 59.7504 60.6718 59.1729 61.3867 59.1729C62.1016 59.1729 62.6792 59.7504 62.6792 60.4653V66.5579C62.6792 67.2728 62.1016 67.8504 61.3867 67.8504Z" fill="#1A6FEE"/>
<path d="M58.803 70.4346H25.1983C24.4833 70.4346 23.9058 69.857 23.9058 69.1421C23.9058 68.4272 24.4833 67.8496 25.1983 67.8496H58.803C59.5179 67.8496 60.0955 68.4272 60.0955 69.1421C60.0955 69.857 59.5179 70.4346 58.803 70.4346Z" fill="#1A6FEE"/>
<path d="M35.5369 53.6342C34.822 53.6342 34.2444 53.0566 34.2444 52.3417V48.2046C34.2444 47.4897 34.822 46.9121 35.5369 46.9121C36.2518 46.9121 36.8294 47.4897 36.8294 48.2046V52.3417C36.8294 53.0566 36.2518 53.6342 35.5369 53.6342Z" fill="#1A6FEE"/>
<path d="M48.4627 53.6331C47.7478 53.6331 47.1702 53.0555 47.1702 52.3406V48.2046C47.1702 47.4897 47.7478 46.9121 48.4627 46.9121C49.1776 46.9121 49.7551 47.4897 49.7551 48.2046V52.3406C49.7551 53.0555 49.1776 53.6331 48.4627 53.6331Z" fill="#1A6FEE"/>
<path d="M41.9994 51.0475C33.4471 51.0475 26.4895 44.0899 26.4895 35.5376C26.4895 34.8227 27.0671 34.2451 27.782 34.2451C28.4969 34.2451 29.0745 34.8227 29.0745 35.5376C29.0745 42.6642 34.8728 48.4625 41.9994 48.4625C49.1259 48.4625 54.9243 42.6642 54.9243 35.5376C54.9243 34.8227 55.5018 34.2451 56.2167 34.2451C56.9316 34.2451 57.5092 34.8227 57.5092 35.5376C57.5092 44.0899 50.5517 51.0475 41.9994 51.0475Z" fill="#1A6FEE"/>
<path d="M56.2167 30.3678C55.5018 30.3678 54.9243 29.7902 54.9243 29.0753C54.9243 21.9487 49.1259 16.1504 41.9994 16.1504C34.8728 16.1504 29.0745 21.9487 29.0745 29.0753C29.0745 29.7902 28.4969 30.3678 27.782 30.3678C27.0671 30.3678 26.4895 29.7902 26.4895 29.0753C26.4895 20.523 33.4471 13.5654 41.9994 13.5654C50.5517 13.5654 57.5092 20.523 57.5092 29.0753C57.5092 29.7902 56.9316 30.3678 56.2167 30.3678Z" fill="#1A6FEE"/>
<path d="M56.2174 31.6607C55.8868 31.6607 55.5556 31.5337 55.3034 31.2822L51.426 27.4047C50.9205 26.8992 50.9205 26.0822 51.426 25.5773C51.9314 25.0719 52.7485 25.0719 53.2533 25.5773L57.1308 29.4548C57.6363 29.9603 57.6363 30.7773 57.1308 31.2822C56.8792 31.5337 56.548 31.6607 56.2174 31.6607H56.2174Z" fill="#1A6FEE"/>
<path d="M42.0006 30.3673C36.2041 30.3673 31.2563 27.7397 31.048 27.6283C30.4196 27.2896 30.1848 26.5078 30.5218 25.8782C30.8593 25.2516 31.64 25.0109 32.2719 25.3508C32.3175 25.3756 36.8724 27.7823 42.0007 27.7823C47.154 27.7823 51.6828 25.3768 51.7279 25.3514C52.3545 25.0138 53.1404 25.2493 53.478 25.8776C53.8155 26.506 53.5801 27.2901 52.9518 27.6277C52.7452 27.7397 47.7973 30.3674 42.0008 30.3674L42.0006 30.3673Z" fill="#1A6FEE"/>
<path d="M27.7826 31.6607C27.4519 31.6607 27.1207 31.5337 26.8686 31.2822C26.3631 30.7767 26.3631 29.9597 26.8686 29.4548L30.7461 25.5773C31.2515 25.0719 32.0686 25.0719 32.5734 25.5773C33.0789 26.0828 33.0789 26.8998 32.5734 27.4047L28.696 31.2822C28.4444 31.5337 28.1132 31.6607 27.7826 31.6607H27.7826Z" fill="#1A6FEE"/>
<path d="M38.1224 56.2176C37.7918 56.2176 37.4606 56.0907 37.2085 55.8391L34.6235 53.2553C34.118 52.7498 34.118 51.9328 34.6235 51.4279C35.1289 50.9225 35.946 50.9225 36.4508 51.4279L39.0358 54.0117C39.5413 54.5172 39.5413 55.3342 39.0358 55.8391C38.7842 56.0906 38.453 56.2176 38.1224 56.2176H38.1224Z" fill="#1A6FEE"/>
<path d="M38.1223 56.2173C37.5805 56.2173 37.0768 55.8746 36.8967 55.3334C36.6706 54.656 37.0364 53.9232 37.7138 53.6982L41.5912 52.4057C42.2721 52.1772 43.0014 52.5453 43.2264 53.2227C43.4526 53.9001 43.0868 54.6329 42.4094 54.8579L38.5319 56.1504C38.3952 56.1954 38.2567 56.2173 38.1223 56.2173L38.1223 56.2173Z" fill="#1A6FEE"/>
<path d="M45.8778 56.2176C45.5472 56.2176 45.216 56.0907 44.9638 55.8391C44.4584 55.3336 44.4584 54.5166 44.9638 54.0117L47.5488 51.4279C48.0542 50.9225 48.8713 50.9225 49.3761 51.4279C49.8816 51.9334 49.8816 52.7504 49.3761 53.2553L46.7912 55.8391C46.5396 56.0906 46.2084 56.2176 45.8778 56.2176H45.8778Z" fill="#1A6FEE"/>
<path d="M45.8781 56.2172C45.7436 56.2172 45.6051 56.1953 45.4696 56.1503L41.5921 54.8578C40.9158 54.6328 40.5489 53.9011 40.7751 53.2226C41.0012 52.5464 41.7265 52.1771 42.4102 52.4056L46.2877 53.6981C46.964 53.9231 47.3309 54.6548 47.1047 55.3333C46.9236 55.8745 46.4198 56.2172 45.878 56.2172L45.8781 56.2172Z" fill="#1A6FEE"/>
<path d="M58.8032 70.4346C58.0883 70.4346 57.5107 69.857 57.5107 69.1421C57.5107 68.4272 58.0883 67.8496 58.8032 67.8496C59.5164 67.8496 60.0957 67.2703 60.0957 66.5571C60.0957 65.8422 60.6733 65.2646 61.3882 65.2646C62.1031 65.2646 62.6807 65.8422 62.6807 66.5571C62.6807 68.695 60.9411 70.4346 58.8032 70.4346Z" fill="#1A6FEE"/>
<path d="M25.1978 70.4346C23.0599 70.4346 21.3203 68.695 21.3203 66.5571C21.3203 65.8422 21.8979 65.2646 22.6128 65.2646C23.3277 65.2646 23.9053 65.8422 23.9053 66.5571C23.9053 67.2703 24.4846 67.8496 25.1978 67.8496C25.9127 67.8496 26.4903 68.4272 26.4903 69.1421C26.4903 69.857 25.9127 70.4346 25.1978 70.4346Z" fill="#1A6FEE"/>
<path d="M27.782 36.8306C27.0671 36.8306 26.4895 36.253 26.4895 35.5381V29.0757C26.4895 28.3608 27.0671 27.7832 27.782 27.7832C28.4969 27.7832 29.0745 28.3608 29.0745 29.0757V35.5381C29.0745 36.253 28.4969 36.8306 27.782 36.8306Z" fill="#1A6FEE"/>
<path d="M56.2175 36.8306C55.5026 36.8306 54.925 36.253 54.925 35.5381V29.0757C54.925 28.3608 55.5026 27.7832 56.2175 27.7832C56.9324 27.7832 57.51 28.3608 57.51 29.0757V35.5381C57.51 36.253 56.9324 36.8306 56.2175 36.8306Z" fill="#1A6FEE"/>
<path d="M35.5342 22.2997C35.1557 22.2997 34.7807 22.1341 34.5251 21.8162C34.0779 21.2594 34.1685 20.4446 34.7241 19.9991C36.7771 18.3495 39.361 17.4424 41.999 17.4424C44.633 17.4424 47.214 18.3483 49.2669 19.9938C49.8237 20.441 49.9132 21.254 49.466 21.8108C49.0211 22.3665 48.207 22.4571 47.649 22.0099C46.0317 20.7122 44.0773 20.0273 41.999 20.0273C39.9183 20.0273 37.9611 20.7134 36.342 22.0151C36.1025 22.2067 35.8169 22.2996 35.5342 22.2996L35.5342 22.2997Z" fill="#1A6FEE"/>
<path d="M42.0379 60.0947C41.323 60.0947 40.739 59.5172 40.739 58.8023C40.739 58.0874 41.3102 57.5098 42.024 57.5098H42.0384C42.7516 57.5098 43.3309 58.0874 43.3309 58.8023C43.3303 59.5172 42.7516 60.0947 42.0378 60.0947H42.0379Z" fill="#1A6FEE"/>
<path d="M42.0379 65.2647C41.323 65.2647 40.739 64.6871 40.739 63.9722C40.739 63.2573 41.3102 62.6797 42.024 62.6797H42.0384C42.7516 62.6797 43.3309 63.2573 43.3309 63.9722C43.3303 64.6871 42.7516 65.2647 42.0378 65.2647H42.0379Z" fill="#1A6FEE"/>
</svg>
